<svg width="284" height="73" viewBox="0 0 284 73" fill="none" xmlns="http://www.w3.org/2000/svg">
<g clip-path="url(#clip0)">
<path d="M79.9999 52.9999C78.5414 53.0117 77.1189 53.4549 75.9118 54.2737C74.7046 55.0924 73.7668 56.2501 73.2163 57.6008C72.6659 58.9516 72.5275 60.4351 72.8186 61.8643C73.1096 63.2936 73.8172 64.6048 74.852 65.6327C75.8869 66.6606 77.2028 67.3593 78.634 67.6407C80.0652 67.9222 81.5477 67.7738 82.8947 67.2143C84.2417 66.6547 85.3931 65.7091 86.2037 64.4965C87.0143 63.2839 87.4479 61.8585 87.4499 60.3999C87.458 59.4216 87.2705 58.4516 86.8983 57.5468C86.5262 56.6421 85.9769 55.8208 85.2828 55.1314C84.5887 54.442 83.7638 53.8983 82.8566 53.5322C81.9494 53.1662 80.9781 52.9852 79.9999 52.9999ZM79.9999 66.9198C78.7051 66.9337 77.4354 66.5623 76.3521 65.8529C75.2689 65.1434 74.421 64.1279 73.9163 62.9354C73.4116 61.7429 73.2729 60.4272 73.5177 59.1557C73.7625 57.8841 74.3798 56.7141 75.2912 55.7942C76.2026 54.8744 77.3669 54.2462 78.6361 53.9897C79.9054 53.7331 81.2222 53.8597 82.4193 54.3534C83.6165 54.847 84.6398 55.6854 85.3592 56.7621C86.0787 57.8387 86.4618 59.105 86.4599 60.3999C86.4802 61.2561 86.3274 62.1076 86.0106 62.9033C85.6937 63.699 85.2195 64.4226 84.6162 65.0305C84.0129 65.6384 83.2931 66.1183 82.4998 66.4412C81.7066 66.7642 80.8563 66.9236 79.9999 66.9099V66.9198Z" fill="#010101"/>
<path d="M99.47 60.7993C98.5594 60.2188 97.6029 59.7138 96.61 59.2893C95.17 58.5793 94.09 58.0693 94.09 56.5193C94.0728 56.1641 94.1302 55.8093 94.2583 55.4776C94.3864 55.1459 94.5825 54.8446 94.8339 54.5932C95.0853 54.3417 95.3866 54.1457 95.7183 54.0176C96.05 53.8894 96.4048 53.8321 96.76 53.8493C97.3497 53.8397 97.9295 54.0007 98.4298 54.313C98.9301 54.6252 99.3295 55.0754 99.58 55.6093L100.27 55.0293C99.9275 54.408 99.4208 53.8929 98.8053 53.5402C98.1898 53.1875 97.4892 53.0107 96.78 53.0293C96.2988 53.0014 95.817 53.0738 95.3652 53.2418C94.9135 53.4099 94.5015 53.67 94.1556 54.0057C93.8096 54.3413 93.5371 54.7451 93.3554 55.1916C93.1737 55.6381 93.0867 56.1174 93.1 56.5993C93.0945 57.174 93.2504 57.7388 93.55 58.2293C94.05 59.0493 94.76 59.4393 96.18 60.1293C97.36 60.7093 98.18 61.1293 98.61 61.3793C99.0236 61.5855 99.3723 61.9019 99.6175 62.2936C99.8628 62.6853 99.9952 63.1371 100 63.5993C99.9963 64.0465 99.9029 64.4885 99.7251 64.8989C99.5474 65.3093 99.2891 65.6799 98.9655 65.9886C98.6418 66.2973 98.2595 66.5379 97.8411 66.696C97.4228 66.8542 96.9769 66.9267 96.53 66.9093C96.0185 66.9165 95.5117 66.8099 95.0465 66.5972C94.5812 66.3844 94.1691 66.0709 93.84 65.6793C93.5144 65.2649 93.2546 64.8028 93.07 64.3093L92.25 64.6893C92.4535 65.2688 92.7696 65.8023 93.18 66.2593C93.5793 66.7526 94.0883 67.146 94.6664 67.4082C95.2445 67.6703 95.8757 67.794 96.51 67.7693C97.0813 67.7933 97.6517 67.7032 98.1878 67.5042C98.7239 67.3052 99.2148 67.0012 99.632 66.6101C100.049 66.219 100.384 65.7486 100.617 65.2265C100.851 64.7044 100.977 64.141 100.99 63.5693C101.002 63.0148 100.868 62.4669 100.601 61.9807C100.334 61.4944 99.9442 61.087 99.47 60.7993Z" fill="#010101"/>
<path d="M113.8 65.9995L107.58 52.7295L106 67.5295H107L108.17 55.9995L113.8 67.9995L119.44 55.9995L120.71 67.5295H121.71L120 52.6895L113.8 65.9995Z" fill="#010101"/>
<path d="M134.53 52.9999C133.072 53.0117 131.649 53.4549 130.442 54.2737C129.235 55.0924 128.297 56.2501 127.747 57.6008C127.196 58.9516 127.058 60.4351 127.349 61.8643C127.64 63.2936 128.347 64.6048 129.382 65.6327C130.417 66.6606 131.733 67.3593 133.164 67.6407C134.595 67.9222 136.078 67.7738 137.425 67.2143C138.772 66.6547 139.923 65.7091 140.734 64.4965C141.545 63.2839 141.978 61.8585 141.98 60.3999C141.988 59.4216 141.801 58.4516 141.429 57.5468C141.056 56.6421 140.507 55.8208 139.813 55.1314C139.119 54.442 138.294 53.8983 137.387 53.5322C136.48 53.1662 135.508 52.9852 134.53 52.9999ZM134.53 66.9198C133.236 66.9317 131.968 66.5589 130.886 65.8486C129.804 65.1384 128.958 64.1227 128.455 62.9306C127.951 61.7385 127.813 60.4237 128.058 59.1531C128.304 57.8825 128.921 56.7133 129.832 55.7941C130.742 54.8748 131.906 54.2469 133.174 53.9901C134.442 53.7332 135.758 53.859 136.955 54.3514C138.152 54.8438 139.175 55.6807 139.895 56.7558C140.616 57.8309 141 59.0958 141 60.3899C141.022 61.2478 140.87 62.1012 140.553 62.8988C140.236 63.6963 139.761 64.4215 139.157 65.0307C138.552 65.6399 137.831 66.1204 137.036 66.4433C136.24 66.7663 135.388 66.925 134.53 66.9099V66.9198Z" fill="#010101"/>
<path d="M148.49 53.1797H147.54V67.5297H152.49V66.6697H148.49V53.1797Z" fill="#010101"/>
<path d="M163 60.7993C162.085 60.2213 161.125 59.7164 160.13 59.2893C158.69 58.5793 157.62 58.0693 157.62 56.5193C157.603 56.1641 157.66 55.8093 157.788 55.4776C157.917 55.1459 158.113 54.8446 158.364 54.5932C158.616 54.3417 158.917 54.1457 159.249 54.0176C159.58 53.8894 159.935 53.8321 160.29 53.8493C160.878 53.8416 161.456 54.0036 161.954 54.3157C162.453 54.6278 162.85 55.0769 163.1 55.6093L163.79 55.0293C163.451 54.4074 162.946 53.8914 162.332 53.5384C161.718 53.1854 161.018 53.0092 160.31 53.0293C159.829 53.0014 159.347 53.0738 158.895 53.2418C158.444 53.4099 158.032 53.67 157.686 54.0057C157.34 54.3413 157.067 54.7451 156.886 55.1916C156.704 55.6381 156.617 56.1174 156.63 56.5993C156.625 57.174 156.781 57.7388 157.08 58.2293C157.57 59.0493 158.28 59.4393 159.7 60.1293C160.89 60.7093 161.7 61.1293 162.14 61.3793C162.559 61.5894 162.911 61.9123 163.157 62.3115C163.402 62.7108 163.532 63.1706 163.53 63.6393C163.523 64.0888 163.425 64.5323 163.241 64.9429C163.058 65.3535 162.793 65.7227 162.464 66.0282C162.134 66.3338 161.745 66.5694 161.322 66.7208C160.899 66.8722 160.449 66.9363 160 66.9093C159.489 66.9165 158.982 66.8099 158.517 66.5972C158.051 66.3844 157.639 66.0709 157.31 65.6793C156.985 65.2649 156.725 64.8028 156.54 64.3093L155.72 64.6893C155.919 65.2688 156.232 65.8026 156.64 66.2593C157.044 66.7556 157.558 67.1507 158.141 67.4129C158.725 67.6751 159.361 67.7971 160 67.7693C160.571 67.7934 161.141 67.7032 161.676 67.504C162.212 67.3049 162.702 67.0008 163.119 66.6095C163.535 66.2183 163.869 65.7478 164.101 65.2258C164.333 64.7037 164.459 64.1405 164.47 63.5693C164.488 63.0194 164.362 62.4743 164.104 61.9883C163.846 61.5024 163.466 61.0924 163 60.7993Z" fill="#010101"/>
<path d="M179.03 53.1797H177.78L171.01 59.9397V53.1797H170.06V67.5297H171.01V61.0597L171.39 60.6897L178.15 67.5297H179.44L172.08 60.0497L179.03 53.1797Z" fill="#010101"/>
<path d="M182.52 67.53H183.52L185.43 62.82H191.55L193.46 67.53H194.46L188.46 52.75L182.52 67.53ZM185.81 62L188.54 55.2L191.23 62H185.81Z" fill="#010101"/>
<path d="M201.69 60.4297L197.56 53.1797H196.49L201.2 61.3997V67.5297H202.14V61.3997L206.98 53.1797H205.91L201.69 60.4297Z" fill="#010101"/>
<path d="M214.54 52.75L208.54 67.53H209.54L211.46 62.82H217.57L219.48 67.53H220.48L214.54 52.75ZM211.79 62L214.52 55.2L217.21 62H211.79Z" fill="#010101"/>
<path d="M99.7701 33.8398C99.7701 36.9798 98.6001 37.8398 96.9701 37.8398V38.3398H106.91V37.8398C105.24 37.8398 103.65 36.9398 103.65 33.8398V14.9998C103.65 12.3598 104.97 11.5898 106.65 11.5898V11.0498H99.7701L92.0001 32.9998L82.0001 11.0498H74.2201V11.5598C75.1135 11.5286 75.9974 11.7529 76.7679 12.2063C77.5384 12.6598 78.1635 13.3236 78.5701 14.1198V28.7098C78.5701 33.0998 77.8701 37.8798 73.0601 37.8798V38.3798H84.0601V37.8798C79.7501 37.8798 79.0601 33.2198 79.0601 28.7098V14.9998L89.9101 38.7298H90.3701L99.7701 12.5298V33.8398Z" fill="#010101"/>
<path d="M143.64 34.7298C143.64 34.7298 138.83 22.4598 134.09 11.0498H133.67L127.18 28.7098C123.81 37.7098 122.84 37.8398 121.36 37.8798V38.3798H130V37.8798C124.6 38.0298 126.31 33.2198 127.36 30.1098H137.41L138.77 33.4898C139.66 35.6598 140.05 37.8798 137.96 37.8798V38.3798H146.81V37.8798C145.74 37.7998 144.92 37.8398 143.64 34.7298ZM127.5 29.6098L132.19 16.7198L137.28 29.6098H127.5Z" fill="#010101"/>
<path d="M183.38 11.0498H173.38V11.5598C178.62 11.5598 176.45 16.8398 175.13 19.5598L172.13 25.6198L166.49 15.8998C163.85 11.4398 166.3 11.5198 167.38 11.5198V11.0498H157.38V11.5198C158.66 11.5998 159.71 11.5998 161.45 14.5198C161.45 14.5198 163.04 17.0798 168.75 27.1698V33.9998C168.75 37.1498 167.47 37.8498 165.84 37.8498V38.3498H175.31V37.8498C173.68 37.8498 172.4 37.1498 172.4 33.9998V26.1898L175.35 20.0998C179.66 11.5598 181.68 11.5598 183.35 11.5598L183.38 11.0498Z" fill="#010101"/>
<path d="M203.37 37.8798C197.98 38.0298 199.68 33.2198 200.73 30.1098H210.79L212.15 33.4898C213.04 35.6598 213.43 37.8798 211.33 37.8798V38.3798H220.18V37.8798C219.09 37.7998 218.28 37.8798 217 34.7298C217 34.7298 212.18 22.4598 207.45 11.0498H207L200.52 28.7098C197.14 37.7098 196.17 37.8398 194.7 37.8798V38.3798H203.35L203.37 37.8798ZM205.55 16.7198L210.63 29.6098H200.85L205.55 16.7198Z" fill="#010101"/>
<path d="M30.0501 35.6097C31.8601 28.8997 35.2301 21.9397 38.3301 18.1397C38.3839 18.0676 38.4159 17.9815 38.4223 17.8917C38.4286 17.8018 38.409 17.7121 38.3659 17.6331C38.3227 17.5541 38.2577 17.4891 38.1787 17.446C38.0996 17.4029 38.0099 17.3833 37.9201 17.3897C37.2201 17.4897 36.4101 17.6197 36.0201 17.6997C35.4979 17.7714 34.9989 17.9608 34.5606 18.2536C34.1223 18.5463 33.7563 18.9348 33.4901 19.3897C30.3501 25.8597 25.1701 36.0697 20.2701 37.1397C19.9644 37.203 19.6465 37.1674 19.3624 37.0379C19.0783 36.9085 18.8428 36.6919 18.6901 36.4197C18.6006 36.2616 18.5397 36.089 18.5101 35.9097C18.0501 33.5997 20.8601 26.3197 22.8101 22.0597L26.8101 12.5397C26.8191 12.5183 26.8217 12.4948 26.8176 12.4719C26.8136 12.4491 26.8029 12.4279 26.7871 12.411C26.7712 12.394 26.7507 12.3821 26.7282 12.3765C26.7057 12.371 26.682 12.3721 26.6601 12.3797C26.1192 12.5534 25.6537 12.9061 25.3401 13.3797C22.5501 18.0397 21.3401 22.2197 18.2101 26.6897C17.5801 27.6097 17.0101 28.3897 16.6401 28.8597C6.76006 41.8597 -1.20994 34.3697 0.940062 25.7697C0.660777 26.7203 0.535855 27.7095 0.570062 28.6997C0.490062 29.1597 0.570062 30.5997 0.570062 31.4097C0.570062 34.2897 -0.639938 29.2797 0.710062 25.0297C-1.28994 30.8097 0.760062 40.3597 10.3701 37.1397C14.6701 35.1397 15.7001 32.7297 19.4501 27.3597C17.5801 30.7197 16.4501 37.4997 18.4501 38.6497C21.6701 40.5497 28.3001 30.9997 33.2001 23.4697C30.625 28.3727 28.9326 33.6904 28.2001 39.1797C28.4538 38.2856 28.8561 37.4404 29.3901 36.6797C29.5903 36.3112 29.8106 35.954 30.0501 35.6097Z" fill="#010101"/>
<path d="M45.1299 33.1099C44.5798 32.2374 43.8249 31.5126 42.9308 30.9985C42.0367 30.4843 41.0306 30.1965 39.9998 30.1599C38.8059 30.0736 37.6075 30.2512 36.4899 30.6799C35.2546 31.0945 34.1057 31.7317 33.0998 32.5599C31.9574 33.4424 30.9324 34.4674 30.0498 35.6099L28.1898 39.1399C28.1298 39.4499 28.0698 39.8199 28.0098 40.3099C27.9752 40.6122 27.9752 40.9175 28.0098 41.2199C28.0176 41.247 28.034 41.2709 28.0566 41.2879C28.0791 41.305 28.1066 41.3142 28.1348 41.3142C28.1631 41.3142 28.1906 41.305 28.2131 41.2879C28.2357 41.2709 28.2521 41.247 28.2598 41.2199C28.6021 39.8444 29.1662 38.5339 29.9298 37.3399C30.9892 35.8196 32.3096 34.4992 33.8299 33.4399C35.4787 31.961 37.615 31.1421 39.8299 31.1399C40.1099 31.1399 40.3598 31.1399 40.5998 31.1899C41.2914 31.1957 41.9721 31.3622 42.5882 31.6764C43.2043 31.9905 43.739 32.4436 44.1499 32.9999C45.1432 34.4999 45.4765 36.6432 45.1499 39.4299C44.844 41.7618 44.1689 44.0302 43.1499 46.1499C42.1637 48.3234 40.8705 50.344 39.3099 52.1499C38.271 53.5057 36.8338 54.5023 35.1998 54.9999C34.5278 55.1528 33.8351 55.1934 33.1499 55.1199C32.5209 55.0438 31.9254 54.7945 31.4298 54.3999C29.8798 53.2099 29.2998 50.9999 29.6798 47.6999C29.923 45.0587 30.634 42.4819 31.7798 40.0899C32.7057 38.1422 34.0271 36.4087 35.6598 34.9999C35.6818 34.9792 35.6966 34.9521 35.7019 34.9224C35.7072 34.8927 35.7028 34.8621 35.6893 34.8351C35.6758 34.8082 35.654 34.7863 35.6271 34.7727C35.6001 34.7592 35.5695 34.7547 35.5398 34.7599C34.2963 35.2476 33.1811 36.0139 32.2798 36.9999C30.1558 39.4542 28.8733 42.524 28.6198 45.7599C28.251 48.1492 28.5557 50.5941 29.4998 52.8199C29.8008 53.6582 30.3233 54.3994 31.0117 54.9646C31.7002 55.5298 32.5289 55.898 33.4098 56.0299C34.079 56.1011 34.7555 56.0571 35.4098 55.8999C37.8098 55.3999 40.1432 53.7332 42.4098 50.8999C44.6666 47.9385 46.0519 44.4059 46.4098 40.6999C46.8603 38.0979 46.4087 35.4202 45.1299 33.1099Z" fill="#010101"/>
<path d="M30.0499 35.6101C29.8092 35.9314 29.5856 36.2652 29.3799 36.6101C28.8459 37.3708 28.4437 38.2159 28.1899 39.1101L30.0499 35.5801V35.6101Z" fill="#010101"/>
<path d="M1.64 23.7397C1.3442 24.407 1.10989 25.0998 0.94 25.8097C1.08201 25.3561 1.25235 24.9119 1.45 24.4797C3.92027 18.9721 7.98028 14.3284 13.1088 11.145C18.2373 7.96151 24.2002 6.38348 30.2321 6.61349C36.2639 6.8435 42.0894 8.87105 46.9606 12.4358C51.8317 16.0006 55.5263 20.9399 57.57 26.6197L58.16 26.4097C56.0721 20.6252 52.3019 15.5974 47.3342 11.9724C42.3664 8.34739 36.4281 6.29091 30.2824 6.06727C24.1367 5.84364 18.0646 7.46307 12.8465 10.7174C7.62842 13.9718 3.50282 18.7123 1 24.3297C0.91 24.5597 0.82 24.7997 0.75 25.0297C0.856877 24.7199 0.98039 24.4161 1.12 24.1197C1.1 24.0497 1.64 23.6697 1.64 23.7397Z" fill="#010101"/>
<path d="M0.569867 31.41C0.569867 30.6 0.489867 29.16 0.569867 28.7C0.539926 27.7232 0.664805 26.7478 0.939867 25.81C1.10976 25.1002 1.34407 24.4073 1.63987 23.74C1.63987 23.67 1.09987 24.05 1.07987 24.12C0.941239 24.4067 0.817737 24.7004 0.709867 25C-0.640133 29.28 0.569867 34.29 0.569867 31.41Z" fill="#010101"/>
<path d="M23 66.4199C18.0008 65.3828 13.3457 63.0964 9.46901 59.774C5.59228 56.4516 2.62019 52.2014 0.829976 47.4199C0.639976 46.8999 0.429976 46.1399 0.269976 45.5999C0.269976 45.4599 0.129976 45.4899 0.159976 45.5999L0.419976 46.9999C0.621493 48.2481 1.00208 49.4606 1.54998 50.5999C5.03128 57.5733 11.0231 62.9705 18.321 65.7068C25.619 68.4431 33.6822 68.3156 40.89 65.3499L40.65 64.7699C35.0639 67.072 28.916 67.6467 23 66.4199Z" fill="#010101"/>
<path d="M55.8001 34.6602L58.9701 33.1902L58.9601 32.8502L55.1401 32.6602L55.1601 32.9602L58.4701 33.1002L55.1801 34.6802V34.7102L58.6101 35.9402L55.3301 36.4302L55.3501 36.7302L59.1301 36.1502L59.1101 35.8002L55.8001 34.6602Z" fill="#010101"/>
<path d="M55.3701 38.9997L56.4201 39.6497L56.1301 41.4397L54.9301 41.7097L54.8701 42.0597L58.8701 41.0597V40.8997L55.3701 38.6797V38.9997ZM58.4701 40.8997L56.4701 41.3697L56.7301 39.7997L58.4701 40.8997Z" fill="#010101"/>
<path d="M54.3301 44.5095L55.9101 45.0695L56.1801 45.6395L53.6801 46.3095L53.5601 46.6595L56.2901 45.8995L57.1801 47.8395L57.3101 47.4695L56.2301 45.1795L57.9101 45.7795L58.0101 45.4995L54.4301 44.2295L54.3301 44.5095Z" fill="#010101"/>
<path d="M51.8799 50.1896L52.1099 50.3296L52.9899 48.7496L54.3999 49.5296L53.5899 50.9896L53.8299 51.1196L54.6399 49.6596L55.8399 50.3296L54.9799 51.8796L55.2199 52.0096L56.2199 50.1996L52.8999 48.3496L51.8799 50.1896Z" fill="#010101"/>
<path d="M51.9663 52.7755L51.2373 53.7412L51.4608 53.9099L52.1898 52.9442L51.9663 52.7755Z" fill="#010101"/>
<path d="M49.0503 54.9999C48.8468 54.9776 48.6409 55.004 48.4496 55.077C48.2583 55.1501 48.0872 55.2676 47.9503 55.4199C47.7953 55.5537 47.6739 55.7221 47.5957 55.9114C47.5176 56.1007 47.4849 56.3057 47.5003 56.5099C47.5761 56.9035 47.7886 57.2577 48.1003 57.5099L49.6803 59.1299L49.8903 58.9299L48.2903 57.2799C48.0524 57.079 47.8815 56.8104 47.8003 56.5099C47.7853 56.3476 47.8058 56.1841 47.8606 56.0306C47.9153 55.8771 48.0028 55.7374 48.1171 55.6213C48.2313 55.5051 48.3695 55.4153 48.5221 55.358C48.6746 55.3008 48.8378 55.2775 49.0003 55.2899C49.2987 55.375 49.5639 55.5495 49.7603 55.7899L51.3603 57.4399L51.5703 57.2299L50.0003 55.5999C49.7587 55.3003 49.4246 55.0893 49.0503 54.9999Z" fill="#010101"/>
<path d="M44.93 58.2296L45.93 59.6996L45.45 60.0196C45.1768 60.1779 44.9706 60.4303 44.87 60.7296C44.8316 60.8676 44.8234 61.0122 44.8458 61.1537C44.8683 61.2952 44.9208 61.4302 45 61.5496C45.078 61.6695 45.1827 61.7698 45.3058 61.8426C45.429 61.9154 45.5673 61.9589 45.71 61.9696C46.0236 61.9922 46.3342 61.8958 46.58 61.6996L47.31 61.2196L45.18 58.0596L44.93 58.2296ZM46.93 61.1596L46.44 61.4896C46.3594 61.5655 46.2635 61.6232 46.1586 61.6587C46.0538 61.6942 45.9426 61.7066 45.8325 61.6953C45.7224 61.6839 45.616 61.6489 45.5207 61.5927C45.4253 61.5365 45.3432 61.4604 45.28 61.3696C44.98 60.9196 45.21 60.5196 45.61 60.2496L46.1 59.9296L46.93 61.1596Z" fill="#010101"/>
</g>
<defs>
<clipPath id="clip0">
<rect width="220.5" height="62.05" fill="white" transform="translate(0 6)"/>
</clipPath>
</defs>
</svg>
